<svg version="1.0" xmlns="http://www.w3.org/2000/svg"
 viewBox="0 0 0 0"
 preserveAspectRatio="xMidYMid meet">
<g 
fill="#000000" stroke="none">
<path d="M0 4900 l0 -4900 4900 0 4900 0 0 4900 0 4900 -4900 0 -4900 0 0
-4900z m5167 2055 c450 -59 875 -268 1195 -588 l92 -92 -354 -3 -354 -2 -121
60 c-133 66 -255 109 -402 143 -86 19 -127 22 -328 22 -213 -1 -238 -2 -340
-27 -141 -33 -286 -87 -402 -149 l-92 -49 -357 2 -358 3 95 94 c334 332 730
523 1224 590 104 15 377 12 502 -4z m-409 -1197 l-3 -233 -669 -5 -668 -5 -20
-50 c-18 -45 -78 -259 -78 -277 0 -5 324 -8 720 -8 l720 0 0 -685 0 -685 -812
0 -813 0 -47 85 c-69 122 -168 359 -156 371 3 2 288 5 634 7 l629 2 3 173 2
172 -674 0 c-494 0 -677 3 -682 11 -14 22 -17 382 -5 489 35 296 128 579 277
837 l19 33 813 0 812 0 -2 -232z m842 -460 l0 -693 228 228 227 227 210 -210
c115 -115 213 -206 217 -202 14 14 25 245 18 357 -23 340 -152 663 -369 923
l-52 62 294 0 293 0 52 -95 c322 -588 337 -1322 39 -1912 -95 -189 -79 -173
-172 -173 l-80 0 -227 227 -227 227 -228 -227 -228 -227 -277 0 -278 0 0 1090
0 1090 280 0 280 0 0 -692z m-1464 -1808 c208 -122 489 -192 769 -191 271 1
511 59 743 182 l93 49 357 -2 357 -3 -94 -93 c-601 -597 -1499 -768 -2281
-435 -248 106 -556 322 -693 487 l-38 46 359 0 360 0 68 -40z"/>
</g>
</svg>
